<svg height="512" viewBox="0 0 60 60" width="512" xmlns="http://www.w3.org/2000/svg"><g id="Page-1" fill="none" fill-rule="evenodd"><g id="016---Device-Syncing" fill-rule="nonzero"><g id="Icons" transform="translate(1 1)"><path id="Shape" d="m44 4 .0000227 23h-44.00002285l.00000015-23c-.00029188-1.06095541.42104175-2.07854066 1.17125054-2.82874946.7502088-.75020879 1.76779405-1.17154242 2.82874946-1.17125054h36c.3344082-.00240243.667549.04134333.99.13 1.7739873.44419508 3.0161462 2.04125664 3.01 3.87z" fill="#00695c"/><path id="Shape" d="m41 4 .0000227 23h-41.00002285l.00000015-23c-.00029188-1.06095541.42104175-2.07854066 1.17125054-2.82874946.7502088-.75020879 1.76779405-1.17154242 2.82874946-1.17125054h33c.3344082-.00240243.667549.04134333.99.13 1.7739873.44419508 3.0161462 2.04125664 3.01 3.87z" fill="#009688"/><path id="Shape" d="m44 25v3c-.0009934 2.7610122-2.2389878 4.9990066-5 5h-35c-1.06095541.0002919-2.07854066-.4210417-2.82874946-1.1712505-.75020879-.7502088-1.17154242-1.7677941-1.17125054-2.8287495l-.00000015-4z" fill="#0377bc"/><path id="Shape" d="m58 20v24h-44.0000002l.0000002-24c-.0002919-1.0609554.4210417-2.0785407 1.1712505-2.8287495s1.7677941-1.1715424 2.8287495-1.1712505h36c2.2062675.0069171 3.9930829 1.7937325 4 4z" fill="#00838f"/><path id="Shape" d="m55 20v24h-41.0000002l.0000002-24c-.0002919-1.0609554.4210417-2.0785407 1.1712505-2.8287495s1.7677941-1.1715424 2.8287495-1.1712505h33c2.2062675.0069171 3.9930829 1.7937325 4 4z" fill="#00bcd4"/><path id="Rectangle-path" d="m31 47h10v9h-10z" fill="#283593"/><path id="Rectangle-path" d="m31 47h7v9h-7z" fill="#3f51b5"/><path id="Shape" d="m46 57c-.0015928.5516236-.4483764.9984072-1 1h-18c-.5516236-.0015928-.9984072-.4483764-1-1 .0024782-1.6558267 1.3441733-2.9975218 3-3h14c.795975-.0010634 1.5596548.3146656 2.1224946.8775054s.8785688 1.3265196.8775054 2.1224946z" fill="#0377bc"/><path id="Shape" d="m43 57c-.0015928.5516236-.4483764.9984072-1 1h-15c-.5516236-.0015928-.9984072-.4483764-1-1 .0024782-1.6558267 1.3441733-2.9975218 3-3h11c.795975-.0010634 1.5596548.3146656 2.1224946.8775054s.8785688 1.3265196.8775054 2.1224946z" fill="#02a9f4"/><path id="Shape" d="m58 41v3c-.0009934 2.7610122-2.2389878 4.9990066-5 5h-35c-1.0609554.0002919-2.0785407-.4210417-2.8287495-1.1712505s-1.1715424-1.7677941-1.1712505-2.8287495l-.0000002-4z" fill="#0377bc"/><path id="Shape" d="m55 41v3c-.0009934 2.7610122-2.2389878 4.9990066-5 5h-32c-1.0609554.0002919-2.0785407-.4210417-2.8287495-1.1712505s-1.1715424-1.7677941-1.1712505-2.8287495l-.0000002-4z" fill="#02a9f4"/></g><g id="Layer_10" fill="#000"><path id="Shape" d="m40 35h-19c-.5522847 0-1-.4477153-1-1s.4477153-1 1-1h19c2.2081794-.0023149 3.9976851-1.7918206 4-4v-24c-.0018187-1.65610033-1.3438997-2.99818129-3-3h-36c-1.65610033.00181871-2.99818129 1.34389967-3 3v25c.00181871 1.6561003 1.34389967 2.9981813 3 3h10c.5522847 0 1 .4477153 1 1s-.4477153 1-1 1h-10c-2.76007596-.0032511-4.99674886-2.239924-5-5v-25c.00325114-2.76007596 2.23992404-4.99674886 5-5h36c2.760076.00325114 4.9967489 2.23992404 5 5v24c-.0036374 3.3122007-2.6877993 5.9963626-6 6z"/><path id="Shape" d="m15 27h-14c-.55228475 0-1-.4477153-1-1s.44771525-1 1-1h14c.5522847 0 1 .4477153 1 1s-.4477153 1-1 1z"/><path id="Shape" d="m59 43h-44c-.5522847 0-1-.4477153-1-1s.4477153-1 1-1h44c.5522847 0 1 .4477153 1 1s-.4477153 1-1 1z"/><path id="Shape" d="m42 56h-10c-.5522847 0-1-.4477153-1-1v-5c0-.5522847.4477153-1 1-1h10c.5522847 0 1 .4477153 1 1v5c0 .5522847-.4477153 1-1 1zm-9-2h8v-3h-8z"/><path id="Shape" d="m46 60h-18c-1.1040441-.0012675-1.9987325-.8959559-2-2 .0023149-2.2081794 1.7918206-3.9976851 4-4h14c2.2081794.0023149 3.9976851 1.7918206 4 4-.0012675 1.1040441-.8959559 1.9987325-2 2zm-16-4c-1.1040441.0012675-1.9987325.8959559-2 2h18c-.0012675-1.1040441-.8959559-1.9987325-2-2z"/><path id="Shape" d="m54 51h-35c-2.760076-.0032511-4.9967489-2.239924-5-5v-25c.0032511-2.760076 2.239924-4.9967489 5-5h17.5859l-2.2929-2.293c-.3789722-.3923789-.3735524-1.0160848.0121814-1.4018186s1.0094397-.3911536 1.4018186-.0121814l4 4c.2859079.2859943.3714219.7160366.216678 1.0896546-.1547439.3736179-.5192821.6172591-.923678.6173454h-20c-1.6561003.0018187-2.9981813 1.3438997-3 3v25c.0018187 1.6561003 1.3438997 2.9981813 3 3h35c2.2081794-.0023149 3.9976851-1.7918206 4-4v-24c-.0018187-1.6561003-1.3438997-2.9981813-3-3h-10c-.5522847 0-1-.4477153-1-1s.4477153-1 1-1h10c2.760076.0032511 4.9967489 2.239924 5 5v24c-.0036374 3.3122007-2.6877993 5.9963626-6 6z"/><path id="Shape" d="m35 22c-.4043959-.0000863-.7689341-.2437275-.923678-.6173454-.1547439-.373618-.0692299-.8036603.216678-1.0896546l4-4c.3923789-.3789722 1.0160848-.3735524 1.4018186.0121814s.3911536 1.0094397.0121814 1.4018186l-4 4c-.1872865.1878577-.4417329.2933072-.707.293z"/><path id="Shape" d="m21 35c-.4043959-.0000863-.7689341-.2437275-.923678-.6173454-.1547439-.373618-.0692299-.8036603.216678-1.0896546l4-4c.3923789-.3789722 1.0160848-.3735524 1.4018186.0121814s.3911536 1.0094397.0121814 1.4018186l-4 4c-.1872865.1878577-.4417329.2933072-.707.293z"/><path id="Shape" d="m25 39c-.2652671.0003072-.5197135-.1051423-.707-.293l-4-4c-.3789722-.3923789-.3735524-1.0160848.0121814-1.4018186s1.0094397-.3911536 1.4018186-.0121814l4 4c.2859079.2859943.3714219.7160366.216678 1.0896546-.1547439.3736179-.5192821.6172591-.923678.6173454z"/><path id="Shape" d="m38 47h-2c-.5522847 0-1-.4477153-1-1s.4477153-1 1-1h2c.5522847 0 1 .4477153 1 1s-.4477153 1-1 1z"/><path id="Shape" d="m7 6h-2c-.55228475 0-1-.44771525-1-1s.44771525-1 1-1h2c.55228475 0 1 .44771525 1 1s-.44771525 1-1 1z"/><path id="Shape" d="m23 6h-12c-.5522847 0-1-.44771525-1-1s.4477153-1 1-1h12c.5522847 0 1 .44771525 1 1s-.4477153 1-1 1z"/></g></g></g></svg>